# xmcd
#
# Track frame offsets: 
#        150
#        18346
#        41550
#        54326
#        67918
#        82004
#        93761
#        105560
#        119133
#        137787
#        149777
#        163388
#        178535
#        190320
#        204712
#
# Disc length: 2923 seconds
#
# Revision: 0
# Processed by: cddbd v1.5.2PL0 Copyright (c) Steve Scherf et al.
# Submitted via: ExactAudioCopy v0.99pb5
#
DISCID=dd0b690f
DTITLE=Various Artist - Ultimate Blues
DYEAR=2011
DGENRE=Blues
TTITLE0=King, B.B. - The Thrill Is Gone
TTITLE1=Hooker, John Lee - It Serves You Right To Suffer
TTITLE2=Thornton, Big Mama - Hound Dog
TTITLE3=Diddley, Bo - I'm A Man
TTITLE4=Howlin' Wolf - Smokestack Lightnin'
TTITLE5=Guy, Buddy - Ten Years Ago
TTITLE6=Parker, Junior - Drivin' Wheel
TTITLE7=Taylor, Koko - Wang Dang Doodle
TTITLE8=Bland, Bobby 'Blue' - Stormy Monday Blues
TTITLE9=Little Walter - My Babe
TTITLE10=Little Milton - Hard Luck Blues
TTITLE11=King, Freddie (feat. Ferrone, Steve,  Tench, Bobby and Vernon
TTITLE11=, Mike) - I Got The Same Old Blues
TTITLE12=Williamson, Sonny Boy - Bring It On Home
TTITLE13=Rush, Otis - So Many Roads, So Many Trains
TTITLE14=Boyd, Eddie - Third Degree
EXTD=
EXTT0=
EXTT1=
EXTT2=
EXTT3=
EXTT4=
EXTT5=
EXTT6=
EXTT7=
EXTT8=
EXTT9=
EXTT10=
EXTT11=
EXTT12=
EXTT13=
EXTT14=
PLAYORDER=
